<?xml version="1.0" standalone="no"?>
<!DOCTYPE svg PUBLIC "-//W3C//DTD SVG 20010904//EN"
 "http://www.w3.org/TR/2001/REC-SVG-20010904/DTD/svg10.dtd">
<svg version="1.0" xmlns="http://www.w3.org/2000/svg"
 width="512.000000pt" height="512.000000pt" viewBox="0 0 512.000000 512.000000"
 preserveAspectRatio="xMidYMid meet">
<metadata>
Created by potrace 1.11, written by Peter Selinger 2001-2013
</metadata>
<g transform="translate(0.000000,512.000000) scale(0.100000,-0.100000)"
fill="#000000" stroke="none">
<path d="M3400 4541 c-304 -121 -686 -272 -1020 -403 -140 -55 -264 -103 -275
-108 -11 -5 -78 -32 -150 -61 -181 -72 -266 -129 -358 -239 -67 -80 -125 -200
-153 -316 -9 -38 -15 -744 -7 -744 4 0 88 32 188 71 1180 466 1173 463 1272
530 23 16 45 29 48 29 4 0 44 29 89 64 210 164 388 390 490 622 36 81 81 210
90 254 2 14 11 57 20 95 25 118 38 297 21 301 -6 1 -120 -42 -255 -95z"/>
<path d="M3585 3284 c-33 -14 -74 -32 -92 -40 -17 -7 -34 -14 -37 -14 -3 0
-147 -56 -320 -125 -173 -68 -357 -141 -408 -161 -51 -20 -212 -83 -358 -141
-146 -58 -305 -120 -355 -139 -49 -19 -99 -39 -110 -44 -11 -5 -121 -49 -245
-98 l-225 -88 -2 -547 c0 -301 2 -547 6 -547 4 0 121 45 261 101 140 55 336
132 435 170 99 39 189 74 200 79 11 5 101 41 200 81 255 101 348 150 497 262
188 143 338 324 466 563 97 183 178 530 163 702 -1 16 -4 15 -76 -14z"/>
<path d="M2105 1379 c-71 -27 -247 -92 -390 -145 -143 -53 -266 -101 -273
-107 -15 -12 -10 -64 14 -148 78 -272 301 -441 639 -484 62 -8 155 -8 163 -1
3 3 5 214 5 468 0 392 -2 463 -14 465 -8 0 -72 -21 -144 -48z"/>
</g>
</svg>
